<mxfile host="app.diagrams.net" modified="2022-11-09T15:56:29.510Z" agent="5.0 (Windows NT 10.0; Win64; x64) AppleWebKit/537.36 (KHTML, like Gecko) Chrome/107.0.0.0 Safari/537.36" etag="5KCN2Qr2AJDWCDmIZd3t" version="20.5.3" type="github">
  <diagram id="C5RBs43oDa-KdzZeNtuy" name="Page-1">
    <mxGraphModel dx="1422" dy="1906" grid="1" gridSize="10" guides="1" tooltips="1" connect="1" arrows="1" fold="1" page="1" pageScale="1" pageWidth="827" pageHeight="1169" math="0" shadow="0">
      <root>
        <mxCell id="WIyWlLk6GJQsqaUBKTNV-0" />
        <mxCell id="WIyWlLk6GJQsqaUBKTNV-1" parent="WIyWlLk6GJQsqaUBKTNV-0" />
        <mxCell id="wID-YnIoI48RQ1YPkdG--1" value="image Augmentation" style="rounded=1;whiteSpace=wrap;html=1;strokeWidth=3;fontFamily=Comic Sans MS;align=center;labelPosition=center;verticalLabelPosition=middle;verticalAlign=middle;spacingTop=7;" vertex="1" parent="WIyWlLk6GJQsqaUBKTNV-1">
          <mxGeometry x="260" y="170" width="120" height="60" as="geometry" />
        </mxCell>
        <mxCell id="WIyWlLk6GJQsqaUBKTNV-3" value="Image Visualization and Augmentation" style="rounded=1;whiteSpace=wrap;html=1;fontSize=12;glass=0;strokeWidth=3;shadow=0;fontFamily=Comic Sans MS;align=center;labelPosition=center;verticalLabelPosition=middle;verticalAlign=middle;spacingTop=7;" parent="WIyWlLk6GJQsqaUBKTNV-1" vertex="1">
          <mxGeometry x="110" y="170" width="120" height="60" as="geometry" />
        </mxCell>
        <mxCell id="WIyWlLk6GJQsqaUBKTNV-11" value="Data Normalization" style="rounded=1;whiteSpace=wrap;html=1;fontSize=12;glass=0;strokeWidth=3;shadow=0;fontFamily=Comic Sans MS;align=center;labelPosition=center;verticalLabelPosition=middle;verticalAlign=middle;spacingTop=7;" parent="WIyWlLk6GJQsqaUBKTNV-1" vertex="1">
          <mxGeometry x="110" y="280" width="120" height="40" as="geometry" />
        </mxCell>
        <mxCell id="wID-YnIoI48RQ1YPkdG--0" value="Start" style="ellipse;whiteSpace=wrap;html=1;strokeWidth=3;fontFamily=Comic Sans MS;rounded=1;align=center;labelPosition=center;verticalLabelPosition=middle;verticalAlign=middle;spacingTop=7;" vertex="1" parent="WIyWlLk6GJQsqaUBKTNV-1">
          <mxGeometry x="180" width="120" height="80" as="geometry" />
        </mxCell>
        <mxCell id="wID-YnIoI48RQ1YPkdG--2" value="Facial Key point Detection Model" style="rounded=1;whiteSpace=wrap;html=1;strokeWidth=3;fontFamily=Comic Sans MS;align=center;labelPosition=center;verticalLabelPosition=middle;verticalAlign=middle;spacingTop=7;" vertex="1" parent="WIyWlLk6GJQsqaUBKTNV-1">
          <mxGeometry x="50" y="50" width="120" height="60" as="geometry" />
        </mxCell>
        <mxCell id="wID-YnIoI48RQ1YPkdG--3" value="Facial Expression Detection Model" style="rounded=1;whiteSpace=wrap;html=1;strokeWidth=3;fontFamily=Comic Sans MS;align=center;labelPosition=center;verticalLabelPosition=middle;verticalAlign=middle;spacingTop=7;" vertex="1" parent="WIyWlLk6GJQsqaUBKTNV-1">
          <mxGeometry x="310" y="60" width="120" height="60" as="geometry" />
        </mxCell>
        <mxCell id="wID-YnIoI48RQ1YPkdG--4" value="" style="endArrow=none;html=1;rounded=1;strokeWidth=3;fontFamily=Comic Sans MS;align=center;labelPosition=center;verticalLabelPosition=middle;verticalAlign=middle;spacingTop=7;" edge="1" parent="WIyWlLk6GJQsqaUBKTNV-1">
          <mxGeometry width="50" height="50" relative="1" as="geometry">
            <mxPoint x="240" y="120" as="sourcePoint" />
            <mxPoint x="240" y="80" as="targetPoint" />
          </mxGeometry>
        </mxCell>
        <mxCell id="wID-YnIoI48RQ1YPkdG--9" value="" style="endArrow=none;html=1;rounded=1;strokeWidth=3;fontFamily=Comic Sans MS;align=center;labelPosition=center;verticalLabelPosition=middle;verticalAlign=middle;spacingTop=7;" edge="1" parent="WIyWlLk6GJQsqaUBKTNV-1">
          <mxGeometry width="50" height="50" relative="1" as="geometry">
            <mxPoint x="310" y="120" as="sourcePoint" />
            <mxPoint x="170" y="120" as="targetPoint" />
            <Array as="points">
              <mxPoint x="310" y="120" />
            </Array>
          </mxGeometry>
        </mxCell>
        <mxCell id="wID-YnIoI48RQ1YPkdG--10" value="" style="endArrow=classic;html=1;rounded=1;strokeWidth=3;fontFamily=Comic Sans MS;align=center;labelPosition=center;verticalLabelPosition=middle;verticalAlign=middle;spacingTop=7;" edge="1" parent="WIyWlLk6GJQsqaUBKTNV-1">
          <mxGeometry width="50" height="50" relative="1" as="geometry">
            <mxPoint x="170" y="120" as="sourcePoint" />
            <mxPoint x="170" y="170" as="targetPoint" />
          </mxGeometry>
        </mxCell>
        <mxCell id="wID-YnIoI48RQ1YPkdG--11" value="" style="endArrow=classic;html=1;rounded=1;strokeWidth=3;fontFamily=Comic Sans MS;align=center;labelPosition=center;verticalLabelPosition=middle;verticalAlign=middle;spacingTop=7;" edge="1" parent="WIyWlLk6GJQsqaUBKTNV-1">
          <mxGeometry width="50" height="50" relative="1" as="geometry">
            <mxPoint x="310" y="120" as="sourcePoint" />
            <mxPoint x="310" y="170" as="targetPoint" />
          </mxGeometry>
        </mxCell>
        <mxCell id="wID-YnIoI48RQ1YPkdG--16" value="Plot Labels" style="rounded=1;whiteSpace=wrap;html=1;fontSize=12;glass=0;strokeWidth=3;shadow=0;fontFamily=Comic Sans MS;align=center;labelPosition=center;verticalLabelPosition=middle;verticalAlign=middle;spacingTop=7;" vertex="1" parent="WIyWlLk6GJQsqaUBKTNV-1">
          <mxGeometry x="260" y="280" width="120" height="40" as="geometry" />
        </mxCell>
        <mxCell id="wID-YnIoI48RQ1YPkdG--17" value="Training Data Preparation" style="rounded=1;whiteSpace=wrap;html=1;fontSize=12;glass=0;strokeWidth=3;shadow=0;fontFamily=Comic Sans MS;align=center;labelPosition=center;verticalLabelPosition=middle;verticalAlign=middle;spacingTop=7;labelBackgroundColor=default;" vertex="1" parent="WIyWlLk6GJQsqaUBKTNV-1">
          <mxGeometry x="100" y="360" width="120" height="40" as="geometry" />
        </mxCell>
        <mxCell id="wID-YnIoI48RQ1YPkdG--40" value="" style="edgeStyle=orthogonalEdgeStyle;rounded=1;orthogonalLoop=1;jettySize=auto;html=1;strokeWidth=3;fontFamily=Comic Sans MS;align=center;labelPosition=center;verticalLabelPosition=middle;verticalAlign=middle;spacingTop=7;" edge="1" parent="WIyWlLk6GJQsqaUBKTNV-1" source="wID-YnIoI48RQ1YPkdG--18" target="wID-YnIoI48RQ1YPkdG--16">
          <mxGeometry relative="1" as="geometry" />
        </mxCell>
        <mxCell id="wID-YnIoI48RQ1YPkdG--18" value="Data Preparation" style="rounded=1;whiteSpace=wrap;html=1;fontSize=12;glass=0;strokeWidth=3;shadow=0;fontFamily=Comic Sans MS;align=center;labelPosition=center;verticalLabelPosition=middle;verticalAlign=middle;spacingTop=7;" vertex="1" parent="WIyWlLk6GJQsqaUBKTNV-1">
          <mxGeometry x="260" y="360" width="120" height="40" as="geometry" />
        </mxCell>
        <mxCell id="wID-YnIoI48RQ1YPkdG--19" value="Build Model" style="rounded=1;whiteSpace=wrap;html=1;fontSize=12;glass=0;strokeWidth=3;shadow=0;fontFamily=Comic Sans MS;align=center;labelPosition=center;verticalLabelPosition=middle;verticalAlign=middle;spacingTop=7;" vertex="1" parent="WIyWlLk6GJQsqaUBKTNV-1">
          <mxGeometry x="90" y="440" width="120" height="40" as="geometry" />
        </mxCell>
        <mxCell id="wID-YnIoI48RQ1YPkdG--20" value="Deep Learning Model" style="rounded=1;whiteSpace=wrap;html=1;fontSize=12;glass=0;strokeWidth=3;shadow=0;fontFamily=Comic Sans MS;align=center;labelPosition=center;verticalLabelPosition=middle;verticalAlign=middle;spacingTop=7;" vertex="1" parent="WIyWlLk6GJQsqaUBKTNV-1">
          <mxGeometry x="260" y="450" width="120" height="40" as="geometry" />
        </mxCell>
        <mxCell id="wID-YnIoI48RQ1YPkdG--21" value="Compile and Train Model" style="rounded=1;whiteSpace=wrap;html=1;fontSize=12;glass=0;strokeWidth=3;shadow=0;fontFamily=Comic Sans MS;align=center;labelPosition=center;verticalLabelPosition=middle;verticalAlign=middle;spacingTop=7;" vertex="1" parent="WIyWlLk6GJQsqaUBKTNV-1">
          <mxGeometry x="90" y="530" width="120" height="40" as="geometry" />
        </mxCell>
        <mxCell id="wID-YnIoI48RQ1YPkdG--22" value="Train Model" style="rounded=1;whiteSpace=wrap;html=1;fontSize=12;glass=0;strokeWidth=3;shadow=0;fontFamily=Comic Sans MS;align=center;labelPosition=center;verticalLabelPosition=middle;verticalAlign=middle;spacingTop=7;" vertex="1" parent="WIyWlLk6GJQsqaUBKTNV-1">
          <mxGeometry x="260" y="520" width="120" height="40" as="geometry" />
        </mxCell>
        <mxCell id="wID-YnIoI48RQ1YPkdG--23" value="Combine&lt;span style=&quot;color: rgba(0, 0, 0, 0); font-size: 0px;&quot;&gt;%3CmxGraphModel%3E%3Croot%3E%3CmxCell%20id%3D%220%22%2F%3E%3CmxCell%20id%3D%221%22%20parent%3D%220%22%2F%3E%3CmxCell%20id%3D%222%22%20value%3D%22Repair%20Lamp%22%20style%3D%22rounded%3D1%3BwhiteSpace%3Dwrap%3Bhtml%3D1%3BfontSize%3D12%3Bglass%3D0%3BstrokeWidth%3D1%3Bshadow%3D0%3B%22%20vertex%3D%221%22%20parent%3D%221%22%3E%3CmxGeometry%20x%3D%22100%22%20y%3D%22320%22%20width%3D%22120%22%20height%3D%2240%22%20as%3D%22geometry%22%2F%3E%3C%2FmxCell%3E%3C%2Froot%3E%3C%2FmxGraphModel%3E&lt;/span&gt;" style="rounded=1;whiteSpace=wrap;html=1;fontSize=12;glass=0;strokeWidth=3;shadow=0;fontFamily=Comic Sans MS;align=center;labelPosition=center;verticalLabelPosition=middle;verticalAlign=middle;spacingTop=7;" vertex="1" parent="WIyWlLk6GJQsqaUBKTNV-1">
          <mxGeometry x="170" y="630" width="120" height="40" as="geometry" />
        </mxCell>
        <mxCell id="wID-YnIoI48RQ1YPkdG--24" value="Calculate" style="rounded=1;whiteSpace=wrap;html=1;fontSize=12;glass=0;strokeWidth=3;shadow=0;fontFamily=Comic Sans MS;align=center;labelPosition=center;verticalLabelPosition=middle;verticalAlign=middle;spacingTop=7;" vertex="1" parent="WIyWlLk6GJQsqaUBKTNV-1">
          <mxGeometry x="170" y="690" width="120" height="40" as="geometry" />
        </mxCell>
        <mxCell id="wID-YnIoI48RQ1YPkdG--26" value="Stop" style="ellipse;whiteSpace=wrap;html=1;strokeWidth=3;fontFamily=Comic Sans MS;rounded=1;align=center;labelPosition=center;verticalLabelPosition=middle;verticalAlign=middle;spacingTop=7;" vertex="1" parent="WIyWlLk6GJQsqaUBKTNV-1">
          <mxGeometry x="175" y="757" width="110" height="70" as="geometry" />
        </mxCell>
        <mxCell id="wID-YnIoI48RQ1YPkdG--27" value="" style="endArrow=classic;html=1;rounded=1;strokeWidth=3;fontFamily=Comic Sans MS;align=center;labelPosition=center;verticalLabelPosition=middle;verticalAlign=middle;spacingTop=7;" edge="1" parent="WIyWlLk6GJQsqaUBKTNV-1">
          <mxGeometry width="50" height="50" relative="1" as="geometry">
            <mxPoint x="159" y="230" as="sourcePoint" />
            <mxPoint x="159" y="280" as="targetPoint" />
          </mxGeometry>
        </mxCell>
        <mxCell id="wID-YnIoI48RQ1YPkdG--28" value="" style="endArrow=classic;html=1;rounded=1;strokeWidth=3;fontFamily=Comic Sans MS;align=center;labelPosition=center;verticalLabelPosition=middle;verticalAlign=middle;spacingTop=7;" edge="1" parent="WIyWlLk6GJQsqaUBKTNV-1">
          <mxGeometry width="50" height="50" relative="1" as="geometry">
            <mxPoint x="319.5" y="230" as="sourcePoint" />
            <mxPoint x="319.5" y="280" as="targetPoint" />
          </mxGeometry>
        </mxCell>
        <mxCell id="wID-YnIoI48RQ1YPkdG--29" value="" style="endArrow=classic;html=1;rounded=1;strokeWidth=3;fontFamily=Comic Sans MS;align=center;labelPosition=center;verticalLabelPosition=middle;verticalAlign=middle;spacingTop=7;" edge="1" parent="WIyWlLk6GJQsqaUBKTNV-1">
          <mxGeometry width="50" height="50" relative="1" as="geometry">
            <mxPoint x="159" y="310" as="sourcePoint" />
            <mxPoint x="159" y="360" as="targetPoint" />
          </mxGeometry>
        </mxCell>
        <mxCell id="wID-YnIoI48RQ1YPkdG--30" value="" style="endArrow=classic;html=1;rounded=1;strokeWidth=3;fontFamily=Comic Sans MS;align=center;labelPosition=center;verticalLabelPosition=middle;verticalAlign=middle;spacingTop=7;" edge="1" parent="WIyWlLk6GJQsqaUBKTNV-1">
          <mxGeometry width="50" height="50" relative="1" as="geometry">
            <mxPoint x="319.5" y="320" as="sourcePoint" />
            <mxPoint x="320" y="360" as="targetPoint" />
          </mxGeometry>
        </mxCell>
        <mxCell id="wID-YnIoI48RQ1YPkdG--31" value="" style="endArrow=classic;html=1;rounded=1;strokeWidth=3;fontFamily=Comic Sans MS;align=center;labelPosition=center;verticalLabelPosition=middle;verticalAlign=middle;spacingTop=7;" edge="1" parent="WIyWlLk6GJQsqaUBKTNV-1">
          <mxGeometry width="50" height="50" relative="1" as="geometry">
            <mxPoint x="319.5" y="400" as="sourcePoint" />
            <mxPoint x="319.5" y="450" as="targetPoint" />
          </mxGeometry>
        </mxCell>
        <mxCell id="wID-YnIoI48RQ1YPkdG--32" value="" style="endArrow=classic;html=1;rounded=1;strokeWidth=3;fontFamily=Comic Sans MS;align=center;labelPosition=center;verticalLabelPosition=middle;verticalAlign=middle;spacingTop=7;" edge="1" parent="WIyWlLk6GJQsqaUBKTNV-1">
          <mxGeometry width="50" height="50" relative="1" as="geometry">
            <mxPoint x="159" y="400" as="sourcePoint" />
            <mxPoint x="159" y="440" as="targetPoint" />
          </mxGeometry>
        </mxCell>
        <mxCell id="wID-YnIoI48RQ1YPkdG--33" value="" style="endArrow=classic;html=1;rounded=1;strokeWidth=3;fontFamily=Comic Sans MS;align=center;labelPosition=center;verticalLabelPosition=middle;verticalAlign=middle;spacingTop=7;" edge="1" parent="WIyWlLk6GJQsqaUBKTNV-1">
          <mxGeometry width="50" height="50" relative="1" as="geometry">
            <mxPoint x="320" y="490" as="sourcePoint" />
            <mxPoint x="319.5" y="530" as="targetPoint" />
          </mxGeometry>
        </mxCell>
        <mxCell id="wID-YnIoI48RQ1YPkdG--34" value="" style="endArrow=classic;html=1;rounded=1;strokeWidth=3;fontFamily=Comic Sans MS;align=center;labelPosition=center;verticalLabelPosition=middle;verticalAlign=middle;spacingTop=7;" edge="1" parent="WIyWlLk6GJQsqaUBKTNV-1">
          <mxGeometry width="50" height="50" relative="1" as="geometry">
            <mxPoint x="159" y="480" as="sourcePoint" />
            <mxPoint x="159" y="530" as="targetPoint" />
          </mxGeometry>
        </mxCell>
        <mxCell id="wID-YnIoI48RQ1YPkdG--35" value="" style="endArrow=none;html=1;rounded=1;strokeWidth=3;fontFamily=Comic Sans MS;align=center;labelPosition=center;verticalLabelPosition=middle;verticalAlign=middle;spacingTop=7;" edge="1" parent="WIyWlLk6GJQsqaUBKTNV-1">
          <mxGeometry width="50" height="50" relative="1" as="geometry">
            <mxPoint x="160" y="600" as="sourcePoint" />
            <mxPoint x="160" y="570" as="targetPoint" />
          </mxGeometry>
        </mxCell>
        <mxCell id="wID-YnIoI48RQ1YPkdG--36" value="" style="endArrow=none;html=1;rounded=1;entryX=0.5;entryY=1;entryDx=0;entryDy=0;strokeWidth=3;fontFamily=Comic Sans MS;align=center;labelPosition=center;verticalLabelPosition=middle;verticalAlign=middle;spacingTop=7;" edge="1" parent="WIyWlLk6GJQsqaUBKTNV-1" target="wID-YnIoI48RQ1YPkdG--22">
          <mxGeometry width="50" height="50" relative="1" as="geometry">
            <mxPoint x="319.5" y="600" as="sourcePoint" />
            <mxPoint x="319.5" y="570" as="targetPoint" />
          </mxGeometry>
        </mxCell>
        <mxCell id="wID-YnIoI48RQ1YPkdG--37" value="" style="endArrow=none;html=1;rounded=1;strokeWidth=3;fontFamily=Comic Sans MS;align=center;labelPosition=center;verticalLabelPosition=middle;verticalAlign=middle;spacingTop=7;" edge="1" parent="WIyWlLk6GJQsqaUBKTNV-1">
          <mxGeometry width="50" height="50" relative="1" as="geometry">
            <mxPoint x="320" y="600" as="sourcePoint" />
            <mxPoint x="160" y="600" as="targetPoint" />
          </mxGeometry>
        </mxCell>
        <mxCell id="wID-YnIoI48RQ1YPkdG--38" value="" style="endArrow=classic;html=1;rounded=1;strokeWidth=3;fontFamily=Comic Sans MS;align=center;labelPosition=center;verticalLabelPosition=middle;verticalAlign=middle;spacingTop=7;" edge="1" parent="WIyWlLk6GJQsqaUBKTNV-1">
          <mxGeometry width="50" height="50" relative="1" as="geometry">
            <mxPoint x="230" y="600" as="sourcePoint" />
            <mxPoint x="230" y="635" as="targetPoint" />
          </mxGeometry>
        </mxCell>
        <mxCell id="wID-YnIoI48RQ1YPkdG--39" value="" style="endArrow=classic;html=1;rounded=1;strokeWidth=3;fontFamily=Comic Sans MS;align=center;labelPosition=center;verticalLabelPosition=middle;verticalAlign=middle;spacingTop=7;" edge="1" parent="WIyWlLk6GJQsqaUBKTNV-1">
          <mxGeometry width="50" height="50" relative="1" as="geometry">
            <mxPoint x="230" y="670" as="sourcePoint" />
            <mxPoint x="229" y="690" as="targetPoint" />
          </mxGeometry>
        </mxCell>
        <mxCell id="wID-YnIoI48RQ1YPkdG--41" value="" style="endArrow=classic;html=1;rounded=1;strokeWidth=3;fontFamily=Comic Sans MS;align=center;labelPosition=center;verticalLabelPosition=middle;verticalAlign=middle;spacingTop=7;" edge="1" parent="WIyWlLk6GJQsqaUBKTNV-1">
          <mxGeometry width="50" height="50" relative="1" as="geometry">
            <mxPoint x="229" y="730" as="sourcePoint" />
            <mxPoint x="229" y="770" as="targetPoint" />
          </mxGeometry>
        </mxCell>
      </root>
    </mxGraphModel>
  </diagram>
</mxfile>
